<?xml version="1.0" encoding="UTF-8"?>
<svg id="Layer_2" data-name="Layer 2" xmlns="http://www.w3.org/2000/svg" viewBox="0 0 125.52 84.39">
  <defs>
    <style>
      .cls-1 {
        fill: #fff;
      }
    </style>
  </defs>
  <g id="Layer_2-2" data-name="Layer 2">
    <g>
      <path class="cls-1" d="m18.7,60.49c2.88-2.88,5.75-5.75,8.63-8.63.22-.22.22-.59,0-.81-2.78-2.78-5.56-5.56-8.35-8.35-.22-.22-.22-.59,0-.81,5.11-5.11,10.21-10.21,15.32-15.32.22-.22.22-.59,0-.81-2.85-2.85-5.71-5.71-8.56-8.56-.22-.22-.59-.22-.81,0L.17,41.96c-.22.22-.22.59,0,.81,5.91,5.91,11.81,11.81,17.72,17.72.22.22.59.22.81,0Z"/>
      <path class="cls-1" d="m96.41.16c2.79,2.79,5.59,5.59,8.38,8.38.22.22.22.57,0,.79-24.96,24.96-49.93,49.93-74.89,74.89-.22.22-.57.22-.79,0l-8.38-8.38c-.22-.22-.22-.57,0-.79L95.62.16c.22-.22.57-.22.79,0Z"/>
      <path class="cls-1" d="m98.25,33.38c2.86,2.86,5.72,5.72,8.57,8.57.23.23.23.59,0,.82-5.12,5.12-10.24,10.24-15.37,15.37-.23.23-.23.59,0,.82,2.77,2.77,5.54,5.54,8.32,8.32.23.23.59.23.82,0l24.76-24.76c.23-.23.23-.59,0-.82-5.9-5.9-11.81-11.81-17.71-17.71-.23-.23-.59-.23-.82,0-2.86,2.86-5.72,5.72-8.57,8.57-.23.23-.23.59,0,.82Z"/>
    </g>
  </g>
</svg>