<?xml version="1.0" encoding="UTF-8"?>
<svg id="Layer_2" data-name="Layer 2" xmlns="http://www.w3.org/2000/svg" viewBox="0 0 360.81 86.01">
  <defs>
    <style>
      .cls-1 {
        fill: #fff;
      }
    </style>
  </defs>
  <g id="Layer_2-2" data-name="Layer 2">
    <g>
      <path class="cls-1" d="m18.7,61.73c2.88-2.88,5.75-5.75,8.63-8.63.22-.22.22-.59,0-.81-2.78-2.78-5.56-5.56-8.35-8.35-.22-.22-.22-.59,0-.81,5.11-5.11,10.21-10.21,15.32-15.32.22-.22.22-.59,0-.81-2.85-2.85-5.71-5.71-8.56-8.56-.22-.22-.59-.22-.81,0L.17,43.2c-.22.22-.22.59,0,.81,5.91,5.91,11.81,11.81,17.72,17.72.22.22.59.22.81,0Z"/>
      <path class="cls-1" d="m96.41,1.4c2.79,2.79,5.59,5.59,8.38,8.38.22.22.22.57,0,.79-24.96,24.96-49.93,49.93-74.89,74.89-.22.22-.57.22-.79,0l-8.38-8.38c-.22-.22-.22-.57,0-.79L95.62,1.4c.22-.22.57-.22.79,0Z"/>
      <path class="cls-1" d="m98.25,34.62c2.86,2.86,5.72,5.72,8.57,8.57.23.23.23.59,0,.82-5.12,5.12-10.24,10.24-15.37,15.37-.23.23-.23.59,0,.82,2.77,2.77,5.54,5.54,8.32,8.32.23.23.59.23.82,0l24.76-24.76c.23-.23.23-.59,0-.82-5.9-5.9-11.81-11.81-17.71-17.71-.23-.23-.59-.23-.82,0-2.86,2.86-5.72,5.72-8.57,8.57-.23.23-.23.59,0,.82Z"/>
    </g>
    <g>
      <path class="cls-1" d="m167.65,75.6c-.28.62-.89,1.01-1.57,1-.58,0-1.17-.01-1.77-.01-.94,0-1.87,0-2.79.02-.59,0-1.14-.29-1.46-.78-.08-.13-.17-.26-.31-.49,0,0-.08-.24-.02-.55.08-.41,2.68-5.88,6.3-13.32,1.75-3.88,3.49-7.76,5.24-11.64.09-.21.3-.34.53-.34,1.99,0,3.98,0,5.97,0,.23,0,.43.13.52.34l14.42,33.49.05.23c0,.64.01,1.27,0,1.91,0,.32-.27.57-.58.57h-33.71c-.2,0-.38-.11-.48-.28-.71-1.22-.67-1.17-1.38-2.38-.11-.19-.11-.42,0-.6.66-1.15,1.31-2.3,1.95-3.46.2-.36.58-.59.99-.59h21.93c.4,0,.67-.41.51-.78-2.33-5.44-4.67-10.88-7-16.32-.19-.45-.82-.45-1.02,0-2.11,4.67-4.22,9.34-6.33,14.01Z"/>
      <g>
        <path class="cls-1" d="m235.52,86.01c2.07,0,4.13,0,6.2,0,.31,0,.56-.25.56-.56,0-3.81,0-7.61,0-11.42,0-.31-.25-.56-.56-.56-2.07,0-4.13,0-6.2,0-.31,0-.56.25-.56.56v11.41c0,.31.25.56.55.56Z"/>
        <path class="cls-1" d="m234.97,52.43c0-.78,0-1.58,0-2.37,0-.32.25-.57.57-.58,2.16-.01,4.3,0,6.45,0,.17,0,.34.08.45.22,3.28,4.26,6.55,8.52,9.83,12.78.23.29.67.29.9,0,3.27-4.26,6.54-8.52,9.81-12.78.11-.14.27-.22.44-.22,2.22,0,4.32,0,6.47,0,.31,0,.57.25.57.56v35.41c0,.31-.25.56-.56.56h-6.18c-.32,0-.58-.26-.58-.58,0-7.08,0-14.17,0-21.25,0-.54-.69-.78-1.02-.35-2.73,3.49-5.46,6.98-8.19,10.47-.12.15-.3.23-.48.23-.58,0-.92,0-1.5,0-.18,0-.35-.08-.46-.22-5.47-7.18-10.94-14.36-16.41-21.54-.07-.1-.11-.21-.11-.33Z"/>
      </g>
      <g>
        <path class="cls-1" d="m276.92,56.77h26.57c.31,0,.55-.26.55-.56,0-2.06,0-4.12-.01-6.19,0-.31-.25-.55-.55-.55h-26.56c-.31,0-.55.25-.55.55v6.2c0,.31.25.55.55.55Z"/>
        <path class="cls-1" d="m276.92,64.08h24.47c.31,0,.55.25.55.56v6.19c0,.31-.25.55-.55.55-8.16,0-16.31,0-24.47,0-.31,0-.55-.25-.55-.55v-6.2c0-.31.25-.55.55-.55Z"/>
        <path class="cls-1" d="m276.92,78.71c8.86,0,17.71,0,26.57,0,.31,0,.55.25.55.55,0,2.07,0,4.13-.01,6.2,0,.31-.25.55-.55.55h-26.55c-.31,0-.55-.25-.55-.55v-6.19c0-.31.25-.55.55-.55Z"/>
      </g>
      <path class="cls-1" d="m310.52,78.69c5.67,0,11.34,0,17.01,0,.4,0,.78-.08,1.14-.26,1.18-.59,3.09-1.79,4.63-4,.53-.76,2.07-3.02,2.21-6.3.15-3.54-1.36-7.48-4.58-9.74-1.11-.78-2.21-1.21-3.06-1.45-.42-.12-.86-.17-1.3-.17-5.35,0-10.7,0-16.05,0-.31,0-.57-.26-.57-.57v-6.17c0-.31.26-.57.57-.57h18.87c.26,0,.51.03.76.1.74.21,1.69.52,2.73,1.02.97.46,3.82,1.91,6.31,5.04.53.67,1.95,2.54,2.95,5.34.23.64,1.11,3.21,1.13,6.7.01,2.98-.61,5.27-.94,6.33-.51,1.63-1.43,4.45-3.92,7.04-1.21,1.25-2.36,2.01-3.1,2.49-1.97,1.28-3.84,1.99-5.22,2.4-.21.06-.43.09-.65.09-6.32,0-12.64,0-18.95,0-.31,0-.56-.25-.56-.56v-6.19c0-.31.25-.56.56-.56Z"/>
      <g>
        <rect class="cls-1" x="198.77" y="49.47" width="7.31" height="12.53" rx=".56" ry=".56"/>
        <path class="cls-1" d="m229.05,50.03v35.41c0,.31-.25.56-.56.56-2.06,0-4.13,0-6.19,0-.31,0-.56-.25-.56-.56,0-4.5,0-8.99,0-13.49,0-.31-.25-.56-.56-.56-4.85,0-9.69,0-14.54,0-.31,0-.56.25-.56.56,0,4.5,0,8.99,0,13.49,0,.31-.25.56-.56.56h-6.19c-.31,0-.56-.25-.56-.56v-20.8c0-.31.25-.56.56-.56h21.85c.31.01.56-.24.56-.55,0-4.5,0-9,0-13.5,0-.31.25-.56.56-.56h6.19c.31,0,.56.25.56.56Z"/>
      </g>
    </g>
    <g>
      <g>
        <path class="cls-1" d="m163.85,11.96V.58c0-.32-.26-.57-.58-.57-2.06,0-4.11,0-6.17,0-.32,0-.57.26-.57.57v11.38c0,.32.26.57.57.57,2.06,0,4.11,0,6.17,0,.32,0,.57-.26.57-.57Z"/>
        <path class="cls-1" d="m186.81.56v35.42c0,.31-.25.56-.56.56-2.07,0-4.13,0-6.2,0-.31,0-.56-.25-.56-.56,0-4.5,0-9,0-13.5,0-.31-.25-.56-.56-.56-4.85,0-9.7,0-14.55,0-.31,0-.56.25-.56.56,0,4.5,0,9,0,13.5,0,.31-.25.56-.56.56h-6.2c-.31,0-.56-.25-.56-.56V15.18c0-.31.25-.56.56-.56h21.86c.31.01.56-.24.56-.55,0-4.5,0-9.01,0-13.51,0-.31.25-.56.56-.56h6.2c.31,0,.56.25.56.56Z"/>
      </g>
      <g>
        <path class="cls-1" d="m230.55,12.54c2.23,0,4.46,0,6.7,0,.31,0,.57-.25.57-.57V.57c0-.31-.25-.57-.57-.57h-6.7c-.31,0-.57.25-.57.57v11.4c0,.31.25.57.57.57Z"/>
        <path class="cls-1" d="m230.55,14.63c2.23,0,4.46,0,6.7,0,.31,0,.57.25.57.57v20.78c0,.31-.25.57-.57.57h-6.7c-.31,0-.57-.25-.57-.57V15.19c0-.31.25-.57.57-.57Z"/>
      </g>
      <g>
        <path class="cls-1" d="m332.45,12.31c.1.15.27.23.45.23,1.13,0,2.26,0,3.41,0,1.02,0,2.04,0,3.06-.01.31,0,.56-.25.56-.56,0-.41,0-.82,0-1.23,0-.38,0-.77,0-1.15,0-.12-.04-.23-.11-.33-1.1-1.51-2.2-3.02-3.3-4.55-1.08-1.49-2.14-2.98-3.2-4.47-.11-.15-.28-.24-.46-.24-1.12,0-2.25,0-3.38,0-1.03,0-2.05,0-3.07,0-.31,0-.56.24-.56.55,0,.79-.01,1.58-.01,2.38,0,.12.04.24.11.35,1.1,1.52,2.2,3.04,3.3,4.56,1.08,1.49,2.15,2.98,3.22,4.47Z"/>
        <path class="cls-1" d="m353.8,0c2.14,0,4.28,0,6.45,0,.31,0,.56.25.56.56v1.01c0,.46,0,.93.01,1.38,0,.12-.03.23-.1.33-4.51,6.47-8.87,12.04-13.38,18.51-.07.09-.1.21-.1.32,0,2.28,0,4.57,0,6.87,0,2.34.01,4.67.02,6.99,0,.32-.26.58-.58.58h-6.69c-.32,0-.58-.26-.58-.58-.01-2.58-.02-5.18-.02-7.78,0-2.56,0-5.11.02-7.65,0-.11.04-.23.1-.32,2.3-3.34,4.61-6.69,6.93-10.04,2.3-3.32,4.6-6.63,6.9-9.93.11-.15.28-.24.47-.25Z"/>
      </g>
      <path class="cls-1" d="m244.29,29.24h17.09c.06,0,.11,0,.16-.02,1.05-.41,3.47-1.55,5.35-4.17,2-2.79,2.18-5.6,2.21-6.3.16-3.7-1.51-7.51-4.58-9.74-1.31-.95-2.61-1.42-3.52-1.67-.04-.01-.08-.02-.12-.02-5.53,0-11.06-.01-16.59-.02-.31,0-.57-.25-.57-.57V.57c0-.31.25-.56.56-.56h19.14c.09.01.17.02.26.04.73.23,1.71.58,2.81,1.13,3.65,1.82,5.74,4.32,6.31,5.04.53.67,1.95,2.54,2.95,5.34.23.64,1.11,3.21,1.13,6.7.01,2.98-.61,5.27-.94,6.33-.51,1.63-1.43,4.45-3.92,7.04-1.21,1.26-2.38,2.02-3.1,2.49-1.91,1.24-3.71,1.93-5.04,2.33-.22.07-.44.09-.66.09h-18.92c-.32,0-.57-.26-.57-.57v-6.17c0-.31.25-.57.57-.57Z"/>
      <path class="cls-1" d="m193.31,7.32h18.1c.06,0,.13,0,.19.03,1.08.35,1.8.87,2.22,1.21.27.22.59.49.9.94.19.26.76,1.1.79,2.3.03,1.05-.36,1.8-.6,2.27-.18.35-.57,1.08-1.39,1.72-.75.58-1.5.81-1.94.91-.04,0-.08.01-.12.01-6.05,0-12.1,0-18.15,0-.32,0-.58.26-.58.58,0,6.23,0,12.45,0,18.68,0,.32.26.57.57.57h6.15c.31,0,.56-.25.56-.56l.02-11.4c0-.32.26-.58.58-.58,2.66-.04,5.29,0,7.94.01.22,0,.43.12.54.31,4,6.83,6.9,11.79,6.98,11.93.01.02.04.07.1.13.1.1.24.16.39.16,2.31,0,4.64.03,6.94,0,.3,0,.55-.24.56-.53.03-.8-.02-1.62-.02-2.43,0-.11-.03-.22-.1-.31-2.27-3.34-4.55-6.67-6.82-10.01-.2-.29-.09-.69.24-.83.99-.44,2.3-1.19,3.47-2.49,2.68-2.98,2.65-6.66,2.64-8.13-.01-1.4-.07-4.1-1.84-6.81-2.45-3.73-6.38-4.74-7.46-4.98-.04,0-.08-.01-.12-.01-6.92,0-13.85,0-20.77,0-.31,0-.56.25-.56.56,0,2.06,0,4.13.01,6.19,0,.31.25.56.57.56Z"/>
      <g>
        <path class="cls-1" d="m302.74,6.3c0,.26.17.49.42.55.82.21,1.88.56,3.01,1.18.97.53,3.06,1.7,4.58,4.18.34.55,1.57,2.66,1.64,5.67.02,1.02-.03,4.73-2.85,7.94-2.26,2.57-5.05,3.4-6.35,3.67-.26.05-.45.28-.45.55v5.71c0,.31.25.56.56.56h3.6c.32,0,.63-.04.93-.14.91-.3,2.01-.74,3.21-1.4,2.31-1.28,3.76-2.73,4.15-3.14,2.74-2.83,3.78-5.94,4.17-7.34.55-2,.55-3.47.56-6.19,0-2.73,0-4.77-.92-7.25-.14-.38-.8-2.11-2.22-4.05-.43-.59-1.61-2.12-3.58-3.63-.89-.68-2.59-1.96-5.13-2.75-.59-.18-1.11-.3-1.51-.38C306.42.01,306.29,0,306.16,0h-2.84c-.32,0-.58.26-.58.58v5.72Z"/>
        <path class="cls-1" d="m300.04,6.31c0,.25-.17.47-.41.53-.82.21-1.88.56-3.02,1.18-.97.53-3.06,1.7-4.58,4.18-.34.55-1.57,2.66-1.64,5.67-.02,1.02.03,4.73,2.85,7.94,2.26,2.57,5.05,3.4,6.35,3.67.26.05.45.28.45.55v5.71c0,.31-.25.56-.56.56h-3.51c-.41,0-.81-.07-1.19-.2-.87-.3-1.91-.72-3.03-1.34-2.31-1.28-3.76-2.73-4.15-3.14-2.74-2.83-3.78-5.94-4.17-7.34-.55-2-.55-3.47-.56-6.19,0-2.73,0-4.77.92-7.25.14-.38.8-2.11,2.22-4.05.43-.59,1.61-2.12,3.58-3.63.89-.68,2.59-1.96,5.13-2.75.58-.18,1.1-.3,1.49-.38C296.36.01,296.49,0,296.64,0h2.83c.32,0,.57.26.57.57v5.74Z"/>
      </g>
    </g>
  </g>
</svg>